# xmcd
#
# Track frame offsets:
#	150
#	18602
#	34727
#	52385
#	79590
#	99050
#	115487
#	133500
#	155697
#	174655
#
# Disc length: 2647 seconds
#
# Revision: 1
# Processed by: cddbd v1.5.1PL0 Copyright (c) Steve Scherf et al.
# Submitted via: CDex 1.50Beta5
#
DISCID=810a550a
DTITLE=BOO WHO WOO - How Do You Do?
DYEAR=1993
DGENRE=Pop
TTITLE0=大好き!I LOVE YOU
TTITLE1=HOLIDAY
TTITLE2=BOY FRIENDS
TTITLE3=MEMORIES
TTITLE4=GRADUATION TRIP
TTITLE5=STAGE
TTITLE6=1972
TTITLE7=皮肉な雨
TTITLE8=O.K.!!
TTITLE9=笑っていようよ
EXTD=
EXTT0=
EXTT1=
EXTT2=
EXTT3=
EXTT4=
EXTT5=
EXTT6=
EXTT7=
EXTT8=
EXTT9=
PLAYORDER=
